<svg xmlns="http://www.w3.org/2000/svg" xmlns:xlink="http://www.w3.org/1999/xlink" width="500" zoomAndPan="magnify" viewBox="0 0 375 374.999991" height="500" preserveAspectRatio="xMidYMid meet" version="1.0"><defs><g/><clipPath id="a180242588"><path d="M 5 179 L 183 179 L 183 212 L 5 212 Z M 5 179 " clip-rule="nonzero"/></clipPath><clipPath id="ca28f84c6d"><path d="M 3.671875 183.96875 L 182.796875 177.351562 L 184.679688 228.316406 L 5.554688 234.933594 Z M 3.671875 183.96875 " clip-rule="nonzero"/></clipPath><clipPath id="afc0211cc4"><path d="M 3.671875 183.96875 L 182.796875 177.351562 L 184.679688 228.316406 L 5.554688 234.933594 Z M 3.671875 183.96875 " clip-rule="nonzero"/></clipPath><clipPath id="33d68ec583"><path d="M 3.671875 183.96875 L 182.796875 177.351562 L 184.679688 228.316406 L 5.554688 234.933594 Z M 3.671875 183.96875 " clip-rule="nonzero"/></clipPath><clipPath id="f0b8a4dbf8"><path d="M 38 136.480469 L 127.601562 136.480469 L 127.601562 209.980469 L 38 209.980469 Z M 38 136.480469 " clip-rule="nonzero"/></clipPath></defs><g clip-path="url(#a180242588)"><g clip-path="url(#ca28f84c6d)"><g clip-path="url(#afc0211cc4)"><g clip-path="url(#33d68ec583)"><path fill="#000000" d="M 7.933594 185.832031 C 57.921875 229.601562 152.828125 203.867188 181.425781 179.851562 L 182.980469 181.6875 C 155.484375 204.777344 58.6875 232.617188 6.3125 188.9375 C 3.75 186.796875 6.214844 184.328125 7.933594 185.832031 Z M 7.933594 185.832031 " fill-opacity="1" fill-rule="nonzero"/></g></g></g></g><g clip-path="url(#f0b8a4dbf8)"><path fill="#000000" d="M 101.097656 154.351562 L 101.289062 154.351562 C 101.785156 154.324219 102.273438 154.25 102.753906 154.128906 C 103.238281 154.007812 103.703125 153.839844 104.152344 153.628906 C 104.601562 153.417969 105.027344 153.167969 105.425781 152.875 C 105.828125 152.582031 106.199219 152.253906 106.535156 151.890625 C 106.875 151.527344 107.175781 151.132812 107.4375 150.710938 C 107.699219 150.289062 107.917969 149.847656 108.097656 149.382812 C 108.273438 148.917969 108.40625 148.441406 108.492188 147.953125 C 108.578125 147.464844 108.617188 146.972656 108.609375 146.476562 C 108.609375 145.40625 108.402344 144.378906 107.996094 143.390625 C 107.585938 142.402344 107.003906 141.527344 106.246094 140.773438 C 105.578125 140.09375 104.804688 139.570312 103.925781 139.199219 C 103.046875 138.832031 102.128906 138.644531 101.175781 138.636719 L 101.046875 138.636719 C 100.542969 138.65625 100.046875 138.722656 99.554688 138.839844 C 99.066406 138.957031 98.589844 139.121094 98.132812 139.328125 C 97.671875 139.539062 97.238281 139.792969 96.828125 140.085938 C 96.421875 140.382812 96.042969 140.714844 95.699219 141.082031 C 95.355469 141.453125 95.050781 141.851562 94.785156 142.28125 C 94.519531 142.707031 94.296875 143.160156 94.121094 143.632812 C 93.945312 144.105469 93.816406 144.589844 93.734375 145.085938 C 93.652344 145.585938 93.617188 146.085938 93.636719 146.589844 C 93.644531 147.664062 93.863281 148.691406 94.28125 149.675781 C 94.703125 150.664062 95.296875 151.53125 96.066406 152.277344 C 96.738281 152.9375 97.507812 153.449219 98.378906 153.804688 C 99.25 154.164062 100.15625 154.347656 101.097656 154.351562 Z M 101.070312 141.96875 L 101.128906 141.96875 C 102.214844 141.980469 103.140625 142.371094 103.90625 143.144531 C 104.824219 144.066406 105.28125 145.179688 105.277344 146.480469 C 105.296875 147.050781 105.210938 147.601562 105.015625 148.132812 C 104.820312 148.667969 104.535156 149.144531 104.15625 149.566406 C 103.777344 149.992188 103.332031 150.328125 102.824219 150.578125 C 102.3125 150.828125 101.777344 150.976562 101.210938 151.015625 L 101.15625 151.015625 C 100.074219 151.015625 99.148438 150.636719 98.378906 149.882812 C 97.929688 149.441406 97.582031 148.933594 97.339844 148.359375 C 97.09375 147.78125 96.96875 147.179688 96.964844 146.550781 C 96.949219 146.265625 96.964844 145.984375 97.003906 145.703125 C 97.046875 145.417969 97.113281 145.144531 97.210938 144.875 C 97.304688 144.605469 97.425781 144.347656 97.570312 144.101562 C 97.714844 143.855469 97.882812 143.628906 98.074219 143.414062 C 98.265625 143.203125 98.472656 143.011719 98.703125 142.839844 C 98.929688 142.667969 99.171875 142.519531 99.429688 142.394531 C 99.6875 142.273438 99.953125 142.175781 100.230469 142.101562 C 100.507812 142.03125 100.789062 141.988281 101.070312 141.96875 Z M 126.738281 151.210938 C 125.785156 148.800781 123.230469 147.773438 120.523438 148.707031 L 118.132812 149.535156 C 115.015625 150.613281 111.792969 151.730469 108.617188 152.90625 C 107.421875 153.375 106.34375 154.039062 105.390625 154.902344 C 104.898438 155.347656 104.347656 155.707031 103.738281 155.980469 C 103.132812 156.25 102.5 156.425781 101.839844 156.503906 C 101.179688 156.578125 100.523438 156.550781 99.871094 156.425781 C 99.21875 156.296875 98.601562 156.074219 98.015625 155.753906 C 95.085938 154.089844 93.511719 154.371094 91.28125 156.96875 C 88.824219 159.820312 86.375 162.683594 84.167969 165.269531 C 79.152344 160.019531 75.285156 156.074219 73.363281 154.089844 C 72.625 153.234375 71.699219 152.710938 70.585938 152.519531 C 69.476562 152.429688 68.476562 152.722656 67.589844 153.390625 C 66.992188 153.792969 66.34375 154.078125 65.644531 154.253906 C 64.949219 154.429688 64.242188 154.476562 63.527344 154.402344 C 62.8125 154.328125 62.128906 154.136719 61.480469 153.820312 C 60.835938 153.507812 60.261719 153.09375 59.757812 152.578125 C 59.058594 151.878906 58.246094 151.34375 57.328125 150.976562 C 53.1875 149.480469 49.046875 148.050781 45.039062 146.667969 L 44.957031 146.640625 C 42.054688 145.640625 39.5625 146.601562 38.609375 149.09375 C 37.648438 151.601562 38.71875 153.894531 41.488281 155.226562 C 42.691406 155.808594 43.894531 156.390625 45.097656 156.976562 L 45.847656 157.339844 C 48.902344 158.824219 52.070312 160.363281 55.214844 161.832031 C 55.761719 162.085938 55.757812 162.117188 55.753906 162.625 C 55.707031 166.195312 55.726562 169.804688 55.746094 173.289062 L 55.777344 181.117188 C 55.789062 186.113281 55.902344 198.914062 55.9375 204 C 55.925781 204.882812 56.113281 205.71875 56.511719 206.507812 C 56.90625 207.292969 57.464844 207.945312 58.179688 208.460938 C 58.824219 208.894531 59.527344 209.15625 60.296875 209.238281 C 61.070312 209.320312 61.8125 209.214844 62.53125 208.925781 C 63.136719 208.675781 63.691406 208.339844 64.1875 207.914062 C 65.117188 208.796875 66.222656 209.246094 67.5 209.265625 C 68.023438 209.265625 68.535156 209.183594 69.035156 209.023438 C 69.824219 208.792969 70.507812 208.390625 71.085938 207.808594 C 72.113281 206.511719 72.589844 205.039062 72.523438 203.390625 C 72.53125 199.132812 72.574219 185.304688 72.464844 166.597656 L 79.699219 173.984375 C 79.980469 174.753906 80.433594 175.40625 81.058594 175.9375 C 83.238281 177.816406 85.707031 177.601562 87.660156 175.355469 C 88.953125 173.878906 90.257812 172.347656 91.417969 170.996094 L 91.621094 170.753906 C 92.042969 170.261719 92.464844 169.765625 92.886719 169.273438 L 92.894531 174.335938 C 92.910156 182.226562 92.925781 196.265625 92.914062 204.289062 C 92.871094 204.832031 92.914062 205.363281 93.046875 205.886719 C 93.179688 206.414062 93.390625 206.902344 93.6875 207.355469 C 93.980469 207.8125 94.339844 208.207031 94.765625 208.542969 C 95.191406 208.875 95.660156 209.132812 96.171875 209.3125 C 96.753906 209.539062 97.363281 209.65625 97.992188 209.660156 C 99.261719 209.648438 100.359375 209.207031 101.285156 208.332031 C 101.601562 208.636719 101.953125 208.890625 102.339844 209.09375 C 102.726562 209.300781 103.132812 209.449219 103.5625 209.539062 C 103.988281 209.628906 104.421875 209.660156 104.859375 209.632812 C 105.292969 209.605469 105.71875 209.515625 106.128906 209.371094 C 109.15625 208.34375 109.511719 205.648438 109.519531 203.710938 L 109.550781 189.386719 C 109.585938 181.269531 109.621094 172.871094 109.617188 164.617188 C 109.617188 164.214844 109.617188 164.214844 110.003906 164.035156 C 113.851562 162.222656 117.71875 160.34375 121.460938 158.527344 L 124.015625 157.285156 C 126.621094 156.019531 127.691406 153.636719 126.738281 151.210938 Z M 80.746094 169.28125 C 80.527344 169.539062 80.332031 169.808594 80.15625 170.097656 L 69.351562 159.292969 C 69.15625 184.078125 69.050781 201.835938 69.191406 203.390625 C 69.191406 203.390625 69.289062 204.941406 68.652344 205.527344 C 68.476562 205.679688 68.273438 205.785156 68.046875 205.84375 C 67.515625 206.011719 66.871094 206.066406 65.898438 204.882812 L 65.800781 181.867188 C 65.800781 181.644531 65.757812 181.433594 65.675781 181.230469 C 65.589844 181.027344 65.472656 180.847656 65.316406 180.695312 C 65.160156 180.539062 64.980469 180.417969 64.777344 180.335938 C 64.574219 180.25 64.363281 180.207031 64.144531 180.207031 C 63.925781 180.207031 63.714844 180.25 63.511719 180.335938 C 63.308594 180.417969 63.128906 180.539062 62.972656 180.695312 C 62.816406 180.847656 62.699219 181.027344 62.613281 181.230469 C 62.53125 181.433594 62.488281 181.644531 62.488281 181.867188 L 62.585938 204.914062 L 62.523438 204.964844 C 62.167969 205.308594 61.773438 205.589844 61.335938 205.816406 C 60.890625 206.007812 60.460938 205.972656 60.054688 205.703125 C 59.496094 205.261719 59.234375 204.683594 59.269531 203.972656 C 59.230469 198.769531 59.117188 185.804688 59.105469 181.105469 L 59.078125 173.277344 L 59.078125 173.210938 C 59.058594 169.753906 59.039062 166.175781 59.085938 162.664062 C 59.117188 162.25 59.082031 161.847656 58.980469 161.445312 C 58.878906 161.046875 58.71875 160.671875 58.496094 160.328125 C 58.273438 159.980469 58 159.675781 57.679688 159.417969 C 57.359375 159.160156 57.003906 158.957031 56.617188 158.816406 C 53.527344 157.371094 50.398438 155.851562 47.378906 154.382812 L 46.851562 154.125 C 45.542969 153.488281 44.238281 152.851562 42.933594 152.21875 C 41.277344 151.421875 41.578125 150.652344 41.71875 150.28125 C 41.828125 149.984375 42.132812 149.191406 43.867188 149.785156 L 43.957031 149.816406 C 47.949219 151.195312 52.074219 152.617188 56.183594 154.101562 C 56.671875 154.3125 57.097656 154.605469 57.464844 154.988281 C 57.851562 155.375 58.265625 155.726562 58.710938 156.042969 C 59.160156 156.359375 59.628906 156.636719 60.121094 156.871094 C 60.617188 157.105469 61.125 157.292969 61.652344 157.4375 C 62.179688 157.582031 62.714844 157.683594 63.261719 157.734375 C 63.804688 157.785156 64.347656 157.789062 64.894531 157.746094 C 65.4375 157.703125 65.976562 157.613281 66.503906 157.476562 C 67.035156 157.339844 67.546875 157.160156 68.046875 156.933594 C 68.542969 156.707031 69.015625 156.441406 69.46875 156.128906 C 69.679688 155.941406 69.925781 155.839844 70.207031 155.832031 C 70.503906 155.894531 70.726562 156.058594 70.882812 156.316406 C 71.324219 156.929688 75.632812 161.304688 82.054688 167.742188 C 81.601562 168.273438 81.164062 168.792969 80.746094 169.28125 Z M 122.558594 154.285156 L 119.984375 155.53125 C 116.25 157.34375 112.390625 159.21875 108.578125 161.011719 C 108.21875 161.152344 107.890625 161.339844 107.59375 161.582031 C 107.292969 161.828125 107.042969 162.109375 106.835938 162.433594 C 106.628906 162.757812 106.476562 163.105469 106.382812 163.476562 C 106.285156 163.851562 106.25 164.226562 106.277344 164.613281 C 106.277344 172.863281 106.246094 181.253906 106.210938 189.367188 L 106.179688 203.695312 C 106.171875 205.832031 105.554688 206.042969 105.054688 206.210938 C 104.488281 206.402344 103.832031 206.445312 102.675781 204.960938 L 102.675781 182.492188 C 102.675781 182.269531 102.636719 182.058594 102.550781 181.855469 C 102.46875 181.652344 102.347656 181.472656 102.191406 181.320312 C 102.039062 181.164062 101.859375 181.042969 101.65625 180.960938 C 101.453125 180.875 101.242188 180.832031 101.019531 180.832031 C 100.800781 180.832031 100.589844 180.875 100.386719 180.960938 C 100.183594 181.042969 100.003906 181.164062 99.851562 181.320312 C 99.695312 181.472656 99.574219 181.652344 99.492188 181.855469 C 99.40625 182.058594 99.363281 182.269531 99.363281 182.492188 L 99.363281 205.136719 C 99.367188 205.25 99.375 205.359375 99.398438 205.46875 C 99.367188 205.507812 99.339844 205.550781 99.308594 205.585938 C 99.207031 205.746094 99.082031 205.882812 98.933594 206 C 98.785156 206.113281 98.617188 206.199219 98.4375 206.257812 C 98.257812 206.3125 98.074219 206.335938 97.882812 206.324219 C 97.695312 206.316406 97.515625 206.273438 97.339844 206.195312 C 96.65625 205.9375 96.238281 205.535156 96.238281 204.292969 C 96.246094 196.421875 96.238281 182.539062 96.21875 174.796875 L 96.199219 160.5 L 92.414062 164.746094 C 91.917969 165.300781 91.511719 165.757812 91.109375 166.222656 C 90.398438 167.046875 89.691406 167.875 88.980469 168.707031 L 88.710938 169.023438 C 87.546875 170.386719 86.347656 171.792969 85.152344 173.164062 C 84.335938 174.097656 83.917969 174.003906 83.234375 173.414062 C 82.746094 172.992188 82.414062 172.460938 83.285156 171.441406 C 86.363281 167.820312 90.019531 163.527344 93.800781 159.144531 C 94.929688 157.832031 94.929688 157.832031 96.375 158.652344 C 97.257812 159.140625 98.195312 159.484375 99.183594 159.683594 C 100.175781 159.882812 101.171875 159.925781 102.175781 159.816406 C 103.179688 159.707031 104.144531 159.445312 105.066406 159.035156 C 105.988281 158.625 106.828125 158.082031 107.582031 157.410156 C 108.230469 156.820312 108.960938 156.359375 109.773438 156.03125 C 112.976562 154.84375 116.1875 153.734375 119.292969 152.660156 L 121.613281 151.855469 C 122.089844 151.695312 123.242188 151.425781 123.636719 152.433594 C 123.929688 153.171875 123.566406 153.796875 122.558594 154.285156 Z M 64.226562 152.203125 L 64.234375 152.203125 C 65.203125 152.203125 66.132812 152.015625 67.027344 151.640625 C 67.917969 151.265625 68.707031 150.734375 69.386719 150.042969 C 70.140625 149.28125 70.71875 148.398438 71.117188 147.402344 C 71.519531 146.40625 71.710938 145.371094 71.695312 144.300781 C 71.710938 143.800781 71.675781 143.304688 71.589844 142.816406 C 71.507812 142.324219 71.375 141.847656 71.199219 141.382812 C 71.019531 140.914062 70.800781 140.472656 70.535156 140.050781 C 70.269531 139.628906 69.964844 139.238281 69.625 138.875 C 69.28125 138.511719 68.90625 138.1875 68.5 137.898438 C 68.09375 137.609375 67.664062 137.363281 67.210938 137.160156 C 66.757812 136.957031 66.285156 136.800781 65.800781 136.6875 C 65.316406 136.578125 64.824219 136.515625 64.328125 136.5 C 63.351562 136.492188 62.414062 136.671875 61.511719 137.039062 C 60.609375 137.402344 59.808594 137.929688 59.113281 138.609375 C 58.355469 139.359375 57.773438 140.230469 57.363281 141.214844 C 56.957031 142.199219 56.753906 143.226562 56.757812 144.292969 C 56.742188 145.363281 56.929688 146.394531 57.328125 147.390625 C 57.726562 148.382812 58.300781 149.261719 59.050781 150.027344 C 59.734375 150.722656 60.523438 151.257812 61.421875 151.636719 C 62.316406 152.011719 63.253906 152.203125 64.226562 152.203125 Z M 61.457031 140.988281 C 62.230469 140.21875 63.160156 139.832031 64.25 139.832031 L 64.300781 139.832031 C 64.84375 139.914062 65.359375 140.089844 65.84375 140.351562 C 66.328125 140.609375 66.757812 140.945312 67.128906 141.355469 C 67.5 141.765625 67.789062 142.222656 68.003906 142.730469 C 68.214844 143.242188 68.335938 143.769531 68.367188 144.320312 C 68.359375 145.617188 67.914062 146.742188 67.027344 147.691406 C 66.84375 147.878906 66.644531 148.046875 66.429688 148.191406 C 66.214844 148.339844 65.984375 148.464844 65.742188 148.566406 C 65.503906 148.667969 65.253906 148.742188 64.996094 148.796875 C 64.742188 148.847656 64.480469 148.871094 64.222656 148.871094 C 63.960938 148.871094 63.699219 148.84375 63.445312 148.792969 C 63.1875 148.738281 62.941406 148.660156 62.699219 148.558594 C 62.457031 148.457031 62.230469 148.332031 62.015625 148.183594 C 61.800781 148.035156 61.601562 147.867188 61.421875 147.679688 C 60.984375 147.230469 60.648438 146.710938 60.417969 146.128906 C 60.191406 145.546875 60.082031 144.941406 60.09375 144.3125 C 60.089844 143.691406 60.203125 143.089844 60.441406 142.515625 C 60.675781 141.9375 61.015625 141.429688 61.457031 140.988281 Z M 61.457031 140.988281 " fill-opacity="1" fill-rule="nonzero"/></g><g fill="#000000" fill-opacity="1"><g transform="translate(179.508097, 200.177394)"><g><path d="M 42.828125 -21.359375 C 42.152344 -21.855469 41.136719 -21.691406 40.640625 -21.011719 C 34.988281 -13.078125 30.90625 -10.828125 28.957031 -11.371094 C 27.253906 -11.859375 26.039062 -14.921875 25.6875 -19.882812 C 25.613281 -20.746094 25.511719 -22.875 23.746094 -23.121094 C 21.738281 -23.421875 20.523438 -21.019531 17.109375 -11.933594 C 16.53125 -10.378906 16.015625 -8.988281 15.691406 -8.167969 C 15.292969 -7.261719 15.019531 -6.761719 14.804688 -6.503906 C 14.34375 -7.257812 13.617188 -9.253906 13.429688 -12.328125 C 13.292969 -13.898438 13.179688 -15.238281 13.164062 -16.34375 C 12.941406 -19.808594 12.914062 -21.074219 11.449219 -21.503906 C 10.160156 -21.789062 9.394531 -20.535156 9.195312 -20.121094 C 6.140625 -15.105469 3.488281 -10.042969 0.769531 -3.949219 C 1.558594 -9.480469 3.164062 -17.460938 5.511719 -24.238281 C 5.757812 -25.050781 5.363281 -25.96875 4.546875 -26.214844 C 3.734375 -26.460938 2.898438 -26.070312 2.574219 -25.25 C 0.8125 -19.949219 -0.824219 -13.234375 -1.921875 -6.644531 C -3.617188 3.957031 -2.554688 4.339844 -1.570312 4.730469 C -1.328125 4.789062 -1.085938 4.847656 -0.851562 4.824219 C -0.0664062 4.757812 0.59375 4.148438 1.121094 2.914062 C 4.273438 -4.644531 6.957031 -10.265625 10.117188 -15.84375 C 10.210938 -14.742188 10.242188 -13.476562 10.363281 -12.0625 C 10.574219 -9.625 11.390625 -3.835938 14.367188 -3.300781 C 16.773438 -2.953125 18.015625 -5.992188 18.484375 -6.980469 C 18.882812 -7.886719 19.398438 -9.277344 19.976562 -10.832031 C 20.683594 -12.714844 21.839844 -15.824219 22.84375 -17.972656 C 23.476562 -12.480469 25.261719 -9.230469 28.179688 -8.453125 C 32.164062 -7.292969 37.152344 -10.96875 43.167969 -19.25 C 43.664062 -19.929688 43.503906 -20.863281 42.828125 -21.359375 Z M 42.828125 -21.359375 "/></g></g></g><g fill="#000000" fill-opacity="1"><g transform="translate(220.469752, 196.641118)"><g><path d="M 25.058594 -19.828125 C 24.3125 -20.238281 23.382812 -20 22.972656 -19.25 C 17.789062 -10.484375 13.441406 -4.882812 9.015625 -1.09375 C 6.796875 0.757812 4.546875 1.269531 2.957031 0.300781 C 1.953125 -0.328125 -1.230469 -3.21875 1.203125 -14.519531 C 8.285156 -21.46875 11.9375 -27.800781 10.5625 -30.851562 C 10.089844 -31.761719 9.089844 -32.308594 8.070312 -32.222656 C 4.929688 -31.871094 0.605469 -26.03125 -1.664062 -15.617188 C -4.4375 -2.785156 -0.898438 1.503906 1.4375 2.886719 C 2.613281 3.65625 3.90625 3.941406 5.320312 3.816406 C 7.128906 3.660156 9.109375 2.777344 10.953125 1.191406 C 15.675781 -2.859375 20.164062 -8.632812 25.558594 -17.730469 C 25.96875 -18.480469 25.730469 -19.410156 25.058594 -19.828125 Z M 7.726562 -28.863281 C 7.519531 -27.578125 6.402344 -24.949219 3.03125 -20.855469 C 4.679688 -25.59375 6.691406 -27.984375 7.726562 -28.863281 Z M 7.726562 -28.863281 "/></g></g></g><g fill="#000000" fill-opacity="1"><g transform="translate(243.348531, 194.665962)"><g><path d="M 32.980469 -20.75 C 32.160156 -21.074219 31.246094 -20.675781 30.996094 -19.863281 C 23.597656 -0.0585938 15.871094 10.433594 13.957031 10.28125 C 13.792969 10.214844 10.808594 7.78125 17.339844 -20.269531 C 17.515625 -20.996094 17.921875 -22.695312 16.589844 -23.453125 C 15.328125 -24.292969 14.066406 -23.3125 11.992188 -21.628906 C 9.765625 -19.933594 6.722656 -17.53125 4.179688 -17.628906 C 11.003906 -32.15625 9.953125 -35.15625 8.042969 -36.179688 C 5.070312 -37.585938 1.398438 -32.4375 -0.25 -29.523438 C -3.589844 -23.214844 -3.042969 -17.796875 1.285156 -15.398438 C 5.703125 -12.847656 10.820312 -16.855469 13.863281 -19.257812 C 13.933594 -19.339844 13.933594 -19.339844 14.007812 -19.425781 C 11.773438 -9.492188 10.46875 -1.695312 10.214844 3.632812 C 9.851562 9.527344 10.746094 12.539062 13.023438 13.210938 C 13.421875 13.257812 13.742188 13.308594 14.136719 13.273438 C 20.425781 12.730469 29.683594 -7.554688 33.863281 -18.765625 C 34.113281 -19.578125 33.714844 -20.496094 32.980469 -20.75 Z M 0.75 -23.429688 C 1.484375 -27.769531 4.839844 -32.023438 6.410156 -33.109375 C 6.359375 -31.835938 5.800781 -28.222656 1.523438 -19.0625 C 0.898438 -19.878906 0.390625 -21.183594 0.75 -23.429688 Z M 0.75 -23.429688 "/></g></g></g><g fill="#000000" fill-opacity="1"><g transform="translate(274.718394, 191.957758)"><g><path d="M 31.355469 -20.292969 C 30.621094 -20.542969 29.707031 -20.148438 29.453125 -19.414062 C 24.527344 -6.710938 20.378906 -2.472656 18.222656 -2.683594 C 17.34375 -2.765625 14.371094 -4.171875 12.476562 -17.867188 C 12.421875 -18.5 11.902344 -19.007812 11.339844 -19.117188 C 10.695312 -19.21875 10.003906 -19.003906 9.734375 -18.425781 C 9.3125 -17.832031 8.894531 -17.164062 8.484375 -16.414062 C 6.75 -13.574219 4.464844 -9.730469 1.613281 -6.078125 C 1.191406 -5.488281 0.824219 -5.140625 0.601562 -4.960938 C -0.1875 -7.667969 1.8125 -18.453125 6.167969 -22.15625 C 7.421875 -23.214844 9.167969 -24.078125 11.851562 -21.457031 C 12.453125 -20.878906 13.40625 -20.878906 13.988281 -21.484375 C 14.574219 -22.011719 14.566406 -23.039062 14.039062 -23.628906 C 10.753906 -26.828125 7.929688 -26.507812 6.097656 -25.714844 C 0.226562 -23.070312 -2.859375 -11.078125 -2.554688 -5.71875 C -2.441406 -3.511719 -1.691406 -2.152344 -0.390625 -1.789062 C 1.640625 -1.171875 3.421875 -3.464844 3.992188 -4.226562 C 6.414062 -7.367188 8.578125 -10.722656 10.097656 -13.308594 C 11.738281 -4.417969 14.246094 -0.121094 17.851562 0.359375 C 18.167969 0.332031 18.488281 0.382812 18.804688 0.355469 C 24.148438 -0.105469 29.082031 -9.957031 32.242188 -18.308594 C 32.566406 -19.128906 32.175781 -19.964844 31.355469 -20.292969 Z M 31.355469 -20.292969 "/></g></g></g><g fill="#000000" fill-opacity="1"><g transform="translate(303.965494, 189.432816)"><g><path d="M 32.28125 -20.609375 C 31.539062 -20.941406 30.617188 -20.625 30.285156 -19.882812 C 24.523438 -8.613281 13.273438 1.46875 8.71875 0.988281 C 8.003906 0.972656 7.027344 0.660156 6.398438 -1.105469 C 6.609375 -1.441406 6.972656 -1.789062 7.339844 -2.136719 C 8.503906 -3.347656 10.175781 -5.078125 11.578125 -7.175781 C 13.808594 -10.695312 14.5625 -14.800781 13.421875 -17 C 12.871094 -17.902344 12.03125 -18.464844 11 -18.453125 C 8.785156 -18.421875 6.460938 -16.003906 3.871094 -11.105469 C 2.648438 -8.78125 1.523438 -6.230469 0.566406 -3.535156 C 2.058594 -14.671875 3.914062 -28.058594 5.34375 -38.085938 C 14.25 -57.863281 18.296875 -72.46875 15.832031 -75.347656 C 15.304688 -75.933594 14.492188 -76.179688 13.71875 -75.957031 C 10.394531 -75.035156 6.117188 -63.101562 3.835938 -48.25 C 3.472656 -46.003906 2.964844 -42.710938 2.425781 -38.863281 C 2.355469 -38.777344 2.367188 -38.621094 2.382812 -38.460938 C -0.464844 -19.128906 -5.121094 15.015625 -4.972656 17.617188 C -4.90625 18.402344 -4.300781 18.984375 -3.585938 19.003906 C -3.5 19.074219 -3.421875 19.066406 -3.265625 19.054688 C -2.636719 19 -2.128906 18.480469 -1.945312 17.832031 L -1.726562 16.703125 C 0.164062 8.304688 2.574219 -2.28125 6.53125 -9.671875 C 8.84375 -14.070312 10.335938 -15.148438 10.792969 -15.347656 C 11.105469 -14.503906 10.941406 -11.796875 8.984375 -8.777344 C 7.789062 -7.007812 6.269531 -5.371094 5.097656 -4.242188 C 3.648438 -2.691406 2.996094 -2 3.246094 -0.914062 C 4.367188 2.871094 6.667969 3.859375 8.425781 4.023438 C 8.828125 4.070312 9.21875 4.035156 9.613281 4 C 17.160156 3.351562 28.398438 -9.582031 32.933594 -18.527344 C 33.34375 -19.273438 33.027344 -20.199219 32.28125 -20.609375 Z M 13.542969 -71.585938 C 13.269531 -68.3125 11.566406 -61.433594 7.222656 -50.285156 C 9.304688 -61.953125 11.964844 -68.753906 13.542969 -71.585938 Z M 13.542969 -71.585938 "/></g></g></g><g fill="#000000" fill-opacity="1"><g transform="translate(334.627763, 186.7857)"><g><path d="M 36.953125 -20.617188 C 36.417969 -21.28125 35.460938 -21.359375 34.796875 -20.824219 C 28.414062 -15.839844 21.917969 -10.367188 15.84375 -3.664062 C 16.28125 -9.5625 16.691406 -15.855469 16.992188 -22.457031 C 17.089844 -23.179688 16.554688 -23.84375 15.828125 -24.019531 C 15.179688 -24.203125 14.417969 -23.820312 14.160156 -23.164062 C 12.816406 -20.355469 9.832031 -14.550781 7.085938 -10.59375 C 6.101562 -9.160156 5.0625 -8.359375 4.476562 -8.703125 C 3.070312 -9.375 1.660156 -14.71875 4.082031 -22.453125 C 4.328125 -23.265625 3.859375 -24.09375 3.125 -24.347656 C 2.3125 -24.59375 1.480469 -24.128906 1.234375 -23.3125 C -1.308594 -15.175781 -0.507812 -7.71875 3.207031 -5.980469 C 4.125 -5.425781 6.714844 -4.777344 9.535156 -8.824219 C 11.015625 -10.929688 12.398438 -13.269531 13.632812 -15.511719 C 13.3125 -10.019531 12.976562 -4.761719 12.539062 0.265625 C 6.515625 7.597656 1.011719 16.308594 -3.4375 27.148438 C -10.914062 45.140625 -10.917969 64.386719 -5.960938 69.503906 C -5 70.53125 -3.851562 70.984375 -2.671875 70.882812 C -2.28125 70.851562 -1.972656 70.742188 -1.585938 70.632812 C 3.394531 68.695312 6.980469 56.980469 9.164062 47.445312 C 11.863281 35.570312 13.941406 20.183594 15.488281 1.433594 C 22.171875 -6.507812 29.464844 -12.839844 36.664062 -18.453125 C 37.332031 -18.984375 37.484375 -19.949219 36.953125 -20.617188 Z M 6.175781 46.753906 C 2.0625 65.167969 -1.855469 67.488281 -2.621094 67.789062 C -2.929688 67.894531 -3.246094 67.921875 -3.765625 67.414062 C -6.894531 64.199219 -8.574219 47.472656 -0.648438 28.253906 C 3.027344 19.460938 7.304688 12.121094 12.0625 5.769531 C 10.636719 22.289062 8.652344 36.003906 6.175781 46.753906 Z M 6.175781 46.753906 "/></g></g></g></svg>